<?xml version="1.0" encoding="UTF-8"?>
<svg version="1.1" xmlns="http://www.w3.org/2000/svg" width="242" height="149">
<path d="M0 0 C0.13487595 2.77245014 0.23400807 5.53837088 0.3125 8.3125 C0.35439453 9.09818359 0.39628906 9.88386719 0.43945312 10.69335938 C0.45556641 11.45068359 0.47167969 12.20800781 0.48828125 12.98828125 C0.51446533 13.68477783 0.54064941 14.38127441 0.56762695 15.09887695 C0 17 0 17 -2.04394531 18.52026367 C-5.60012406 20.30040898 -9.17350655 22.02295282 -12.78515625 23.6875 C-14.30017616 24.39313052 -15.81514869 25.09886276 -17.33007812 25.8046875 C-19.70146118 26.90564285 -22.07352198 28.00509731 -24.4465332 29.10253906 C-26.74879023 30.16852669 -29.04833954 31.24018814 -31.34765625 32.3125 C-32.05503433 32.63758545 -32.76241241 32.9626709 -33.4912262 33.29760742 C-36.94478746 34.91151554 -40.06571099 36.55201302 -43 39 C-34.04950952 43.22377524 -24.90750123 46.83067531 -15.66040039 50.34863281 C-13.81446063 51.05243753 -11.97163629 51.7643963 -10.12890625 52.4765625 C-9.04681885 52.88986816 -7.96473145 53.30317383 -6.84985352 53.72900391 C-4.16414353 54.92679421 -2.11741138 55.96258601 0 58 C0.29561076 60.87038052 0.37943016 63.33754745 0.25 66.1875 C0.23195313 66.93708984 0.21390625 67.68667969 0.1953125 68.45898438 C0.14824109 70.3065371 0.07649766 72.15343159 0 74 C-4.25233438 75.23900163 -6.46503757 74.7463846 -10.46484375 72.9375 C-11.50439209 72.47408203 -12.54394043 72.01066406 -13.61499023 71.53320312 C-14.71141846 71.02724609 -15.80784668 70.52128906 -16.9375 70 C-18.07195557 69.48888672 -19.20641113 68.97777344 -20.37524414 68.45117188 C-27.02800361 65.43356296 -33.55499978 62.24868879 -40.04296875 58.89453125 C-46.95200013 55.47541215 -54.16714142 52.66103732 -61.29272461 49.73046875 C-62.38721924 49.27671875 -63.48171387 48.82296875 -64.609375 48.35546875 C-65.59905273 47.94965576 -66.58873047 47.54384277 -67.60839844 47.12573242 C-70 46 -70 46 -72 44 C-72.88642414 40.47962983 -72.83473382 37.52675856 -72 34 C-70.4621582 32.53955078 -70.4621582 32.53955078 -68.23828125 31.3203125 C-66.87388916 30.56717773 -66.87388916 30.56717773 -65.48193359 29.79882812 C-64.33289551 29.20521484 -63.18385742 28.61160156 -62 28 C-61.29280823 27.63430908 -60.58561646 27.26861816 -59.85699463 26.8918457 C-54.67153473 24.22191137 -49.45879185 21.60886935 -44.23510742 19.01464844 C-41.46629844 17.63930498 -38.70069068 16.25769501 -35.93554688 14.875 C-31.48624186 12.65390296 -27.02899746 10.4495835 -22.56463623 8.25891113 C-20.86012309 7.42221135 -19.15686428 6.58295121 -17.45489502 5.74108887 C-15.09078159 4.5746679 -12.72050898 3.42195387 -10.34765625 2.2734375 C-9.64458847 1.92439362 -8.94152069 1.57534973 -8.21714783 1.21572876 C-3.34418449 -1.11472816 -3.34418449 -1.11472816 0 0 Z " fill="#4C9DD3" transform="translate(76,34)"/>
<path d="M0 0 C3.92532149 1.5608136 7.7071591 3.36606898 11.46191406 5.29785156 C12.86588029 6.01009225 14.27019677 6.72164281 15.67480469 7.43261719 C16.79544312 8.0012146 16.79544312 8.0012146 17.9387207 8.58129883 C21.34315703 10.2972966 24.76341324 11.98058229 28.18395996 13.66418457 C31.87679114 15.48245383 35.56486031 17.31027937 39.25292969 19.13818359 C41.15194522 20.07749221 43.05236862 21.01395923 44.95410156 21.94775391 C47.74173997 23.31736167 50.52411198 24.69718357 53.30566406 26.07910156 C54.15352478 26.49270935 55.0013855 26.90631714 55.87493896 27.3324585 C59.9422611 29.36534076 63.42964189 31.15387844 66.32128906 34.78222656 C66.88769531 37.03613281 66.88769531 37.03613281 66.88378906 39.34472656 C66.91666016 40.49134766 66.91666016 40.49134766 66.95019531 41.66113281 C66.32128906 43.78222656 66.32128906 43.78222656 64.24755859 45.20410156 C60.86048232 47.03073772 57.39607076 48.615169 53.87207031 50.15332031 C53.14977234 50.47217194 52.42747437 50.79102356 51.68328857 51.11953735 C49.33477011 52.15594726 46.9843875 53.18804372 44.63378906 54.21972656 C30.92342664 60.24371008 30.92342664 60.24371008 17.33691406 66.54003906 C16.15186279 67.10150635 14.96681152 67.66297363 13.74584961 68.24145508 C11.55171001 69.28777813 9.36276501 70.34508515 7.17993164 71.41479492 C6.20693115 71.87764893 5.23393066 72.34050293 4.23144531 72.81738281 C3.39750244 73.22351807 2.56355957 73.62965332 1.7043457 74.0480957 C-1.13205254 74.9218842 -2.85598944 74.58382542 -5.67871094 73.78222656 C-5.84107839 71.19637452 -5.9596658 68.62070702 -6.05371094 66.03222656 C-6.10398438 65.30261719 -6.15425781 64.57300781 -6.20605469 63.82128906 C-6.26464844 61.67285156 -6.26464844 61.67285156 -5.67871094 57.78222656 C-1.61121903 54.03250746 3.56617739 52.31230047 8.69628906 50.40722656 C9.47633301 50.11050049 10.25637695 49.81377441 11.06005859 49.50805664 C13.47735104 48.59089165 15.89853932 47.68486773 18.32128906 46.78222656 C19.47564453 46.35127686 19.47564453 46.35127686 20.65332031 45.91162109 C21.3996875 45.63302246 22.14605469 45.35442383 22.91503906 45.06738281 C23.63643066 44.79780762 24.35782227 44.52823242 25.10107422 44.25048828 C26.46419198 43.74253552 27.82839946 43.23749436 29.19384766 42.73583984 C32.33231594 41.57438527 35.36865493 40.36240513 38.32128906 38.78222656 C30.67856662 34.90819727 23.00728592 31.09916179 15.28222656 27.39160156 C14.36969872 26.95354439 14.36969872 26.95354439 13.43873596 26.50663757 C10.36113004 25.03029722 7.28187915 23.55747989 4.20092773 22.08813477 C3.06631104 21.54503662 1.93169434 21.00193848 0.76269531 20.44238281 C-0.26138428 19.95390869 -1.28546387 19.46543457 -2.34057617 18.9621582 C-4.67871094 17.78222656 -4.67871094 17.78222656 -5.67871094 16.78222656 C-5.75196262 13.91955089 -5.77109299 11.08150757 -5.74121094 8.21972656 C-5.73669922 7.41341797 -5.7321875 6.60710938 -5.72753906 5.77636719 C-5.71571611 3.778289 -5.69778008 1.78024873 -5.67871094 -0.21777344 C-3.67871094 -1.21777344 -3.67871094 -1.21777344 0 0 Z " fill="#4199D2" transform="translate(173.6787109375,34.2177734375)"/>
<path d="M0 0 C1.04285156 0.00644531 2.08570313 0.01289063 3.16015625 0.01953125 C5.9375 0.1875 5.9375 0.1875 8.9375 1.1875 C8.41431211 7.10150996 7.14103004 11.90965015 4.875 17.375 C4.23352501 18.97361752 3.59293458 20.57259021 2.953125 22.171875 C2.45329102 23.4103418 2.45329102 23.4103418 1.94335938 24.67382812 C0.28979191 28.80614139 -1.29376108 32.9645794 -2.875 37.125 C-3.36395752 38.408302 -3.36395752 38.408302 -3.86279297 39.7175293 C-7.12157468 48.29503588 -10.30351015 56.90095317 -13.47387695 65.51147461 C-14.66395977 68.73912714 -15.86181765 71.9637766 -17.0625 75.1875 C-17.5054541 76.38632813 -17.9484082 77.58515625 -18.40478516 78.8203125 C-18.84483887 79.99335937 -19.28489258 81.16640625 -19.73828125 82.375 C-20.13571533 83.44105469 -20.53314941 84.50710937 -20.94262695 85.60546875 C-22.0625 88.1875 -22.0625 88.1875 -24.0625 90.1875 C-26.80735593 90.33257695 -29.44730543 90.37402423 -32.1875 90.3125 C-32.94160156 90.30347656 -33.69570312 90.29445313 -34.47265625 90.28515625 C-36.33607254 90.2615687 -38.19932593 90.22569719 -40.0625 90.1875 C-41.10891471 87.00937652 -41.03266737 85.28000397 -39.85009766 82.16699219 C-39.55842712 81.3830307 -39.26675659 80.59906921 -38.96624756 79.79135132 C-38.63965149 78.94754913 -38.31305542 78.10374695 -37.9765625 77.234375 C-37.47796722 75.90788437 -37.47796722 75.90788437 -36.96929932 74.55459595 C-35.8854909 71.67828677 -34.78657303 68.80800682 -33.6875 65.9375 C-32.94181966 63.96605493 -32.19719225 61.99421127 -31.45361328 60.02197266 C-29.64950659 55.24264122 -27.83445359 50.46756348 -26.01586914 45.69372559 C-24.33794545 41.28278432 -22.67720818 36.86545829 -21.01977539 32.44677734 C-20.31102648 30.55795271 -19.59938343 28.67021093 -18.88452148 26.78369141 C-17.29028582 22.56074174 -15.75632982 18.33040592 -14.33203125 14.046875 C-14.06213379 13.24330566 -13.79223633 12.43973633 -13.51416016 11.61181641 C-13.02482298 10.13942742 -12.54801343 8.66277903 -12.08740234 7.18115234 C-11.19208184 4.48286047 -10.52689048 2.55962076 -8.2734375 0.75390625 C-5.4495978 0.03048442 -2.91447984 -0.03972649 0 0 Z " fill="#4098D2" transform="translate(138.0625,26.8125)"/>
<path d="M0 0 C0 5.28 0 10.56 0 16 C-8.51449447 20.59782702 -18.14861443 25.53898158 -28 25 C-28 25.66 -28 26.32 -28 27 C-28.60328125 27.04898438 -29.2065625 27.09796875 -29.828125 27.1484375 C-30.62734375 27.22320312 -31.4265625 27.29796875 -32.25 27.375 C-33.03890625 27.44460937 -33.8278125 27.51421875 -34.640625 27.5859375 C-37.085877 28.01507113 -38.84836903 28.78600638 -41 30 C-41.144375 29.2575 -41.28875 28.515 -41.4375 27.75 C-41.90199226 25.47914894 -42.42905436 23.24539967 -43 21 C-41.52853516 20.27296875 -41.52853516 20.27296875 -40.02734375 19.53125 C-32.87806398 15.98649915 -25.75087126 12.40091527 -18.6875 8.6875 C-18.06029053 8.36265625 -17.43308105 8.0378125 -16.78686523 7.703125 C-13.76002977 6.0979156 -11.28555552 4.56101335 -9 2 C-5.57529167 -0.16898194 -4.43226579 0 0 0 Z " fill="#4197D0" transform="translate(74,35)"/>
<path d="M0 0 C1.14082031 0.4434375 2.28164062 0.886875 3.45703125 1.34375 C6.1875 2.5 6.1875 2.5 7.1875 3.5 C7.26063567 6.03049402 7.27997527 8.53304837 7.25 11.0625 C7.24548828 11.77341797 7.24097656 12.48433594 7.23632812 13.21679688 C7.22450864 14.97790013 7.20657263 16.73896036 7.1875 18.5 C2.07075251 17.99026097 -1.71026755 16.8348868 -6.25 14.4375 C-7.82587891 13.61572266 -7.82587891 13.61572266 -9.43359375 12.77734375 C-10.21863281 12.35582031 -11.00367188 11.93429688 -11.8125 11.5 C-11.8125 10.84 -11.8125 10.18 -11.8125 9.5 C-12.4725 9.17 -13.1325 8.84 -13.8125 8.5 C-13.1525 8.5 -12.4925 8.5 -11.8125 8.5 C-11.8125 7.51 -11.8125 6.52 -11.8125 5.5 C-13.1325 5.5 -14.4525 5.5 -15.8125 5.5 C-15.8125 4.84 -15.8125 4.18 -15.8125 3.5 C-16.8025 3.17 -17.7925 2.84 -18.8125 2.5 C-18.625 0.625 -18.625 0.625 -17.8125 -1.5 C-11.83130114 -5.08871932 -6.01869044 -2.36620516 0 0 Z " fill="#4298D2" transform="translate(66.8125,88.5)"/>
<path d="M0 0 C2.91985181 0.68088981 5.35122304 1.58101234 8 3 C8 3.66 8 4.32 8 5 C8.804375 5.185625 8.804375 5.185625 9.625 5.375 C15.62306826 6.95343901 21.03009433 9.30865732 26.5625 12.0625 C27.27728516 12.41505859 27.99207031 12.76761719 28.72851562 13.13085938 C33.8725103 15.7450206 33.8725103 15.7450206 35 18 C34.030625 17.608125 33.06125 17.21625 32.0625 16.8125 C27.88824286 15.60887984 24.8575506 16.55531387 20.8203125 17.8828125 C18.80053363 18.8608977 18.80053363 18.8608977 18.2421875 21.1171875 C18.16226563 21.73851563 18.08234375 22.35984375 18 23 C17.50371094 22.73445313 17.00742188 22.46890625 16.49609375 22.1953125 C12.06169647 19.88976249 7.83783019 18.32803182 3 17 C2.01 16.34 1.02 15.68 0 15 C-0.22137393 12.37302936 -0.28162025 9.99106036 -0.1875 7.375 C-0.17396484 6.66859375 -0.16042969 5.9621875 -0.14648438 5.234375 C-0.1111104 3.48925872 -0.05730221 1.74453392 0 0 Z " fill="#459AD2" transform="translate(170,35)"/>
<path d="M0 0 C0.99 0.33 1.98 0.66 3 1 C3.13487595 3.77245014 3.23400807 6.53837088 3.3125 9.3125 C3.35439453 10.09818359 3.39628906 10.88386719 3.43945312 11.69335938 C3.45556641 12.45068359 3.47167969 13.20800781 3.48828125 13.98828125 C3.51446533 14.68477783 3.54064941 15.38127441 3.56762695 16.09887695 C3 18 3 18 0.95605469 19.52026367 C-2.60012406 21.30040898 -6.17350655 23.02295282 -9.78515625 24.6875 C-11.30017616 25.39313052 -12.81514869 26.09886276 -14.33007812 26.8046875 C-16.70146118 27.90564285 -19.07352198 29.00509731 -21.4465332 30.10253906 C-23.74879023 31.16852669 -26.04833954 32.24018814 -28.34765625 33.3125 C-29.05503433 33.63758545 -29.76241241 33.9626709 -30.4912262 34.29760742 C-33.94478746 35.91151554 -37.06571099 37.55201302 -40 40 C-31.04950952 44.22377524 -21.90750123 47.83067531 -12.66040039 51.34863281 C-10.81446063 52.05243753 -8.97163629 52.7643963 -7.12890625 53.4765625 C-6.04681885 53.88986816 -4.96473145 54.30317383 -3.84985352 54.72900391 C-1.16414353 55.92679421 0.88258862 56.96258601 3 59 C3.29561076 61.87038052 3.37943016 64.33754745 3.25 67.1875 C3.23195312 67.93708984 3.21390625 68.68667969 3.1953125 69.45898438 C3.14824109 71.3065371 3.07649766 73.15343159 3 75 C0.64453125 75.58984375 0.64453125 75.58984375 -2 76 C-4.3125 74.5625 -4.3125 74.5625 -6 73 C-3.69 73.33 -1.38 73.66 1 74 C0.505 66.575 0.505 66.575 0 59 C-10.15121171 55.00393837 -10.15121171 55.00393837 -20.5859375 51.87109375 C-23.29279452 50.89434761 -25.6318889 49.5030689 -28.10449219 48.04516602 C-31.25814305 46.3062712 -34.58135738 45.04107744 -37.9375 43.75 C-38.62134766 43.481875 -39.30519531 43.21375 -40.00976562 42.9375 C-41.67129202 42.28683232 -43.33537949 41.64271062 -45 41 C-45 40.01 -45 39.02 -45 38 C-5.95744681 18 -5.95744681 18 1 18 C1 12.72 1 7.44 1 2 C0.01 1.67 -0.98 1.34 -2 1 C-1.34 0.67 -0.68 0.34 0 0 Z " fill="#D8E5ED" transform="translate(73,33)"/>
<path d="M0 0 C3.91812991 1.55808675 7.6961619 3.3551536 11.4453125 5.28125 C12.82278722 5.97942212 14.20039993 6.67732204 15.578125 7.375 C16.32352539 7.75398438 17.06892578 8.13296875 17.83691406 8.5234375 C22.65432309 10.96339929 27.48894723 13.36907797 32.3203125 15.78125 C34.23704179 16.73945808 36.15371362 17.6977811 38.0703125 18.65625 C39.30007812 19.27113281 39.30007812 19.27113281 40.5546875 19.8984375 C41.13734375 20.18976562 41.72 20.48109375 42.3203125 20.78125 C38.63134766 21.90234375 38.63134766 21.90234375 35.83203125 20.8125 C34.90003906 20.3071875 33.96804687 19.801875 33.0078125 19.28125 C28.22092427 16.76461391 23.41261946 14.36815893 18.5078125 12.09375 C17.89832764 11.80886719 17.28884277 11.52398437 16.66088867 11.23046875 C13.6109937 9.81218268 10.54868634 8.46509714 7.43359375 7.19921875 C4.3203125 5.78125 4.3203125 5.78125 3.3203125 3.78125 C1.01065402 2.72772157 -1.3226649 1.72405904 -3.6796875 0.78125 C-3.59289608 3.24133778 -3.48607795 5.69768517 -3.3671875 8.15625 C-3.34462891 8.85492188 -3.32207031 9.55359375 -3.29882812 10.2734375 C-3.20984454 12.55413941 -3.20984454 12.55413941 -2.6796875 15.78125 C0.0691057 17.6137788 2.13397937 18.30805876 5.26953125 19.140625 C9.09450843 20.33547502 12.69476126 22.08768185 16.3203125 23.78125 C16.3203125 24.44125 16.3203125 25.10125 16.3203125 25.78125 C16.92359375 25.90242188 17.526875 26.02359375 18.1484375 26.1484375 C18.94765625 26.31601562 19.746875 26.48359375 20.5703125 26.65625 C21.35921875 26.81867187 22.148125 26.98109375 22.9609375 27.1484375 C25.28862394 27.77275075 27.21063202 28.62963542 29.3203125 29.78125 C29.3203125 30.44125 29.3203125 31.10125 29.3203125 31.78125 C30.22523438 31.96300781 30.22523438 31.96300781 31.1484375 32.1484375 C31.94765625 32.31601563 32.746875 32.48359375 33.5703125 32.65625 C34.35921875 32.81867188 35.148125 32.98109375 35.9609375 33.1484375 C38.28862394 33.77275075 40.21063202 34.62963542 42.3203125 35.78125 C42.3203125 37.10125 42.3203125 38.42125 42.3203125 39.78125 C37.6953125 41.90625 37.6953125 41.90625 34.3203125 40.78125 C35.6403125 40.12125 36.9603125 39.46125 38.3203125 38.78125 C30.67759006 34.90722071 23.00630936 31.09818523 15.28125 27.390625 C14.36872215 26.95256783 14.36872215 26.95256783 13.4377594 26.50566101 C10.36015348 25.02932065 7.28090259 23.55650333 4.19995117 22.0871582 C3.06533447 21.54406006 1.93071777 21.00096191 0.76171875 20.44140625 C-0.26236084 19.95293213 -1.28644043 19.46445801 -2.34155273 18.96118164 C-4.6796875 17.78125 -4.6796875 17.78125 -5.6796875 16.78125 C-5.75293918 13.91857433 -5.77206955 11.080531 -5.7421875 8.21875 C-5.73767578 7.41244141 -5.73316406 6.60613281 -5.72851562 5.77539062 C-5.71669268 3.77731244 -5.69875664 1.77927217 -5.6796875 -0.21875 C-3.6796875 -1.21875 -3.6796875 -1.21875 0 0 Z " fill="#D5E4EE" transform="translate(173.6796875,34.21875)"/>
<path d="M0 0 C0.66 0.99 1.32 1.98 2 3 C1.5390625 5.04296875 1.5390625 5.04296875 0.625 7.1875 C0.32851563 7.90292969 0.03203125 8.61835937 -0.2734375 9.35546875 C-0.51320313 9.89816406 -0.75296875 10.44085938 -1 11 C0.65 10.67 2.3 10.34 4 10 C1.60236815 12.39763185 0.66726502 12.34280586 -2.625 12.625 C-3.44226563 12.69976562 -4.25953125 12.77453125 -5.1015625 12.8515625 C-5.72804688 12.90054688 -6.35453125 12.94953125 -7 13 C-7 13.66 -7 14.32 -7 15 C-7.60328125 15.04898438 -8.2065625 15.09796875 -8.828125 15.1484375 C-9.62734375 15.22320312 -10.4265625 15.29796875 -11.25 15.375 C-12.03890625 15.44460937 -12.8278125 15.51421875 -13.640625 15.5859375 C-16.085877 16.01507113 -17.84836903 16.78600638 -20 18 C-20.144375 17.2575 -20.28875 16.515 -20.4375 15.75 C-20.90199226 13.47914894 -21.42905436 11.24539967 -22 9 C-19.46317484 7.677356 -16.92122349 6.36682639 -14.375 5.0625 C-13.66214844 4.68931641 -12.94929688 4.31613281 -12.21484375 3.93164062 C-8.13081898 1.85216012 -4.6297779 0.46005679 0 0 Z " fill="#3F97D2" transform="translate(53,47)"/>
<path d="M0 0 C-0.66 0 -1.32 0 -2 0 C-2 0.66 -2 1.32 -2 2 C-2.66 2 -3.32 2 -4 2 C-4 2.66 -4 3.32 -4 4 C-4.71800781 4.12375 -5.43601563 4.2475 -6.17578125 4.375 C-14.53916494 6.04142763 -21.94104017 8.87435468 -29.72583008 12.30664062 C-30.51111084 12.65275391 -31.2963916 12.99886719 -32.10546875 13.35546875 C-32.80824951 13.67153076 -33.51103027 13.98759277 -34.23510742 14.31323242 C-36 15 -36 15 -38 15 C-38 19.95 -38 24.9 -38 30 C-36.98679688 29.50628906 -35.97359375 29.01257813 -34.9296875 28.50390625 C-33.57831522 27.8563737 -32.22674198 27.20926044 -30.875 26.5625 C-30.20984375 26.23701172 -29.5446875 25.91152344 -28.859375 25.57617188 C-24.90132029 23.69415567 -21.41020487 22.48773294 -17 22 C-17 21.34 -17 20.68 -17 20 C-15.75579353 19.4654744 -14.50429064 18.94791389 -13.25 18.4375 C-12.55390625 18.14746094 -11.8578125 17.85742188 -11.140625 17.55859375 C-8.67732713 16.91579887 -7.40641843 17.3102482 -5 18 C-8.31154421 19.58533781 -11.62441059 21.16789426 -14.9375 22.75 C-15.86369141 23.1934375 -16.78988281 23.636875 -17.74414062 24.09375 C-19.59617118 24.97752599 -21.45083294 25.85580952 -23.30810547 26.72851562 C-25.05500011 27.55364054 -26.79425776 28.39520815 -28.52392578 29.25585938 C-34.3320099 32.0545298 -34.3320099 32.0545298 -38.0625 31.75 C-38.701875 31.5025 -39.34125 31.255 -40 31 C-40.16236745 28.41414795 -40.28095486 25.83848046 -40.375 23.25 C-40.42527344 22.52039063 -40.47554687 21.79078125 -40.52734375 21.0390625 C-40.5859375 18.890625 -40.5859375 18.890625 -40 15 C-35.89532983 11.20462994 -30.62295682 9.48365296 -25.4375 7.5625 C-23.84107716 6.95981729 -22.24472352 6.35695124 -20.6484375 5.75390625 C-19.86436523 5.46016113 -19.08029297 5.16641602 -18.27246094 4.86376953 C-16.18286155 4.06950625 -14.10928735 3.24559202 -12.0390625 2.40234375 C-10.89179688 1.93957031 -9.74453125 1.47679688 -8.5625 1 C-7.55316406 0.5875 -6.54382813 0.175 -5.50390625 -0.25 C-3 -1 -3 -1 0 0 Z " fill="#EEF2F5" transform="translate(208,77)"/>
<path d="M0 0 C5.30386878 1.55647824 9.96038392 3.91055015 14.8125 6.5 C15.58787109 6.90347656 16.36324219 7.30695312 17.16210938 7.72265625 C17.89880859 8.11324219 18.63550781 8.50382812 19.39453125 8.90625 C20.06331299 9.26009766 20.73209473 9.61394531 21.42114258 9.97851562 C23 11 23 11 24 13 C24.2734375 15.05859375 24.2734375 15.05859375 24.375 17.4375 C24.42398438 18.21996094 24.47296875 19.00242187 24.5234375 19.80859375 C24 22 24 22 21.88769531 23.4387207 C16.84669059 26.16422165 11.61905748 28.48203565 6.39746094 30.83544922 C4.37004296 31.75224156 2.34920797 32.68262253 0.328125 33.61328125 C-0.96055396 34.19616121 -2.24960397 34.77822167 -3.5390625 35.359375 C-4.70646973 35.89014648 -5.87387695 36.42091797 -7.07666016 36.96777344 C-10 38 -10 38 -13 37 C-11.02 36.505 -11.02 36.505 -9 36 C-9 35.34 -9 34.68 -9 34 C-8.195625 33.71125 -7.39125 33.4225 -6.5625 33.125 C-3.8673532 32.26737432 -3.8673532 32.26737432 -3 30 C-1.66666667 29.66666667 -0.33333333 29.33333333 1 29 C1.33 28.34 1.66 27.68 2 27 C2.804375 26.87625 3.60875 26.7525 4.4375 26.625 C8.49928839 25.91240555 11.87042045 24.48662283 15.6328125 22.83984375 C18 22 18 22 22 22 C22.04680072 18.87103731 21.88115722 16.01366196 21 13 C18.46641231 11.07447335 16.85519332 10.10908904 14 9 C12.845 8.484375 11.69 7.96875 10.5 7.4375 C9.345 6.963125 8.19 6.48875 7 6 C5.68657117 5.43967224 4.37404264 4.87722862 3.0625 4.3125 C2.051875 3.879375 1.04125 3.44625 0 3 C0 2.01 0 1.02 0 0 Z " fill="#E3ECF1" transform="translate(216,56)"/>
<path d="M0 0 C1.56427734 0.00966797 1.56427734 0.00966797 3.16015625 0.01953125 C5.9375 0.1875 5.9375 0.1875 8.9375 1.1875 C8.41580353 7.39145806 6.93142491 12.4511777 4.5625 18.1875 C3.9500849 19.70815784 3.33810258 21.22899005 2.7265625 22.75 C2.42911133 23.4821875 2.13166016 24.214375 1.82519531 24.96875 C0.4708884 28.35377233 -0.79600969 31.76875315 -2.0625 35.1875 C-2.90761035 32.08222979 -3.08445292 29.77030872 -2.6875 26.5625 C-2.59726563 25.78648438 -2.50703125 25.01046875 -2.4140625 24.2109375 C-2.0625 22.1875 -2.0625 22.1875 -1.0625 20.1875 C-0.4025 20.1875 0.2575 20.1875 0.9375 20.1875 C1.040625 19.5275 1.14375 18.8675 1.25 18.1875 C2.12963564 14.34908991 3.50719896 10.85653309 4.9375 7.1875 C5.5975 7.1875 6.2575 7.1875 6.9375 7.1875 C7.2675 5.5375 7.5975 3.8875 7.9375 2.1875 C2.6575 2.1875 -2.6225 2.1875 -8.0625 2.1875 C-8.3925 3.8375 -8.7225 5.4875 -9.0625 7.1875 C-9.64240757 8.89416146 -10.26033459 10.58824664 -10.91015625 12.26953125 C-11.26787109 13.20087891 -11.62558594 14.13222656 -11.99414062 15.09179688 C-12.36732422 16.05150391 -12.74050781 17.01121094 -13.125 18 C-13.69057617 19.46856445 -13.69057617 19.46856445 -14.26757812 20.96679688 C-15.19565595 23.3751001 -16.12740116 25.78191614 -17.0625 28.1875 C-18.75244413 23.1176676 -16.0893232 18.52433962 -14.375 13.625 C-14.02244141 12.55830078 -13.66988281 11.49160156 -13.30664062 10.39257812 C-12.95408203 9.37486328 -12.60152344 8.35714844 -12.23828125 7.30859375 C-11.75742065 5.90758423 -11.75742065 5.90758423 -11.2668457 4.47827148 C-8.78867418 -0.23542877 -4.90906243 -0.06691411 0 0 Z " fill="#ECF1F3" transform="translate(138.0625,26.8125)"/>
<path d="M0 0 C5.06998019 0.65419099 9.41990777 2.8546409 14 5 C14 5.66 14 6.32 14 7 C14.60328125 7.12117188 15.2065625 7.24234375 15.828125 7.3671875 C16.62734375 7.53476562 17.4265625 7.70234375 18.25 7.875 C19.03890625 8.03742187 19.8278125 8.19984375 20.640625 8.3671875 C22.96831144 8.99150075 24.89031952 9.84838542 27 11 C27 11.66 27 12.32 27 13 C27.60328125 13.12117188 28.2065625 13.24234375 28.828125 13.3671875 C29.62734375 13.53476563 30.4265625 13.70234375 31.25 13.875 C32.03890625 14.03742188 32.8278125 14.19984375 33.640625 14.3671875 C35.96831144 14.99150075 37.89031952 15.84838542 40 17 C40 18.32 40 19.64 40 21 C35.375 23.125 35.375 23.125 32 22 C33.32 21.34 34.64 20.68 36 20 C33.73061719 18.85122277 31.45971577 17.70565454 29.1875 16.5625 C28.48423584 16.20776611 27.78097168 15.85303223 27.05639648 15.48754883 C22.98145812 13.44585299 18.88531077 11.47019776 14.7421875 9.5703125 C13.44825073 8.97367798 13.44825073 8.97367798 12.12817383 8.36499023 C10.43408981 7.58750739 8.73604152 6.81859805 7.03393555 6.05883789 C6.26090088 5.70297607 5.48786621 5.34711426 4.69140625 4.98046875 C4.00248291 4.67004639 3.31355957 4.35962402 2.60375977 4.03979492 C1 3 1 3 0 0 Z " fill="#D2E2ED" transform="translate(176,53)"/>
<path d="M0 0 C-7.98545214 4.69145313 -16.04261619 9.11055022 -24.3581543 13.19140625 C-28.77350291 15.36297817 -33.07408719 17.66310905 -37.30078125 20.1875 C-39 21 -39 21 -42 21 C-42 21.66 -42 22.32 -42 23 C-44.97 23.33 -47.94 23.66 -51 24 C-48.41693756 21.98044344 -45.88569158 20.318343 -42.95336914 18.85522461 C-41.7767849 18.26462502 -41.7767849 18.26462502 -40.57643127 17.66209412 C-39.73781052 17.2463765 -38.89918976 16.83065887 -38.03515625 16.40234375 C-37.16483261 15.96741104 -36.29450897 15.53247833 -35.39781189 15.08436584 C-33.56050612 14.16722073 -31.72223078 13.25201571 -29.88305664 12.33862305 C-27.07402358 10.94322439 -24.26823583 9.54146747 -21.46289062 8.13867188 C-19.67466728 7.24701847 -17.88626182 6.35573019 -16.09765625 5.46484375 C-15.26105972 5.0471019 -14.4244632 4.62936005 -13.56251526 4.19895935 C-2.53764219 -1.26882109 -2.53764219 -1.26882109 0 0 Z " fill="#DAE6ED" transform="translate(63,40)"/>
<path d="M0 0 C0.33 0 0.66 0 1 0 C1.17835515 4.54805635 0.99785435 7.8794254 -1 12 C-1.66 12 -2.32 12 -3 12 C-3.103125 13.299375 -3.20625 14.59875 -3.3125 15.9375 C-3.848308 20.90160353 -5.24930225 25.34248334 -7 30 C-7.99 30 -8.98 30 -10 30 C-10.268125 30.99 -10.53625 31.98 -10.8125 33 C-11.7843461 36.41869265 -12.99535655 39.70054311 -14.28125 43.01171875 C-14.96684678 44.90828811 -15.48834143 46.86180171 -16 48.8125 C-16.94716356 51.83158385 -17.54503125 53.1029787 -20 55 C-19.38081434 51.52682797 -18.4921764 48.35781001 -17.25 45.05786133 C-16.89292969 44.10369827 -16.53585938 43.14953522 -16.16796875 42.16645813 C-15.78253906 41.14859726 -15.39710937 40.13073639 -15 39.08203125 C-14.60425781 38.02843918 -14.20851563 36.97484711 -13.80078125 35.889328 C-12.96532952 33.66716352 -12.1280474 31.44568645 -11.2890625 29.22485352 C-10.00134403 25.81605785 -8.71892847 22.40530518 -7.4375 18.99414062 C-6.62530692 16.83582198 -5.81281714 14.67761495 -5 12.51953125 C-4.61457031 11.49559769 -4.22914062 10.47166412 -3.83203125 9.41670227 C-3.47496094 8.4719957 -3.11789063 7.52728912 -2.75 6.55395508 C-2.43546875 5.72076248 -2.1209375 4.88756989 -1.796875 4.02912903 C-1 2 -1 2 0 0 Z " fill="#C8DDE9" transform="translate(119,55)"/>
<path d="M0 0 C0.66 0.66 1.32 1.32 2 2 C1.34 2 0.68 2 0 2 C0 1.34 0 0.68 0 0 Z M-12 1 C-8.65747276 0.92572162 -6.1964086 0.93453047 -3 2 C-2.01 2 -1.02 2 0 2 C0.061875 2.61875 0.12375 3.2375 0.1875 3.875 C0.80020521 6.20849372 0.80020521 6.20849372 3.15625 7.03125 C6.183679 8.06257197 9.20402101 8.87349959 12.3125 9.625 C13.38113281 9.88539062 14.44976562 10.14578125 15.55078125 10.4140625 C16.76314453 10.70410156 16.76314453 10.70410156 18 11 C18 11.66 18 12.32 18 13 C18.66 13 19.32 13 20 13 C20 13.66 20 14.32 20 15 C20.61488281 15.18175781 21.22976562 15.36351563 21.86328125 15.55078125 C22.67152344 15.80214844 23.47976562 16.05351563 24.3125 16.3125 C25.11300781 16.55613281 25.91351563 16.79976562 26.73828125 17.05078125 C29.09964573 18.04182023 30.33879993 19.08074943 32 21 C27.54083634 20.33240928 23.64775188 18.7025737 19.5625 16.875 C18.51340454 16.41130005 18.51340454 16.41130005 17.44311523 15.93823242 C11.58916297 13.32362133 5.86596602 10.48402224 0.15234375 7.578125 C-3.84391048 5.57752189 -7.89661 3.76870259 -12 2 C-12 1.67 -12 1.34 -12 1 Z " fill="#BBD6E9" transform="translate(35,85)"/>
<path d="M0 0 C0.66 0 1.32 0 2 0 C1.32606223 6.02459518 -0.80215544 11.47111216 -2.875 17.125 C-3.22691406 18.11371094 -3.57882813 19.10242188 -3.94140625 20.12109375 C-4.28816406 21.07371094 -4.63492188 22.02632812 -4.9921875 23.0078125 C-5.30526855 23.87035645 -5.61834961 24.73290039 -5.94091797 25.62158203 C-7.05420546 28.12173111 -8.12204655 30.00454999 -10 32 C-12.87038052 32.29561076 -15.33754745 32.37943016 -18.1875 32.25 C-18.93708984 32.23195312 -19.68667969 32.21390625 -20.45898438 32.1953125 C-22.3065371 32.14824109 -24.15343159 32.07649766 -26 32 C-26.625 30.1875 -26.625 30.1875 -27 28 C-26.01 26.515 -26.01 26.515 -25 25 C-25 26.65 -25 28.3 -25 30 C-20.05 30 -15.1 30 -10 30 C-9.731875 28.63875 -9.46375 27.2775 -9.1875 25.875 C-8.3059683 21.86121738 -6.83906641 18.67813282 -5 15 C-4.44349996 12.74126455 -3.9944949 10.47242782 -3.5390625 8.19140625 C-2.80568754 5.2100776 -1.50248209 2.66349098 0 0 Z " fill="#E4ECF1" transform="translate(124,85)"/>
<path d="M0 0 C5.28 0 10.56 0 16 0 C15.67 1.65 15.34 3.3 15 5 C10.91621717 4.25749403 6.98060777 3.17076699 3 2 C2.8865625 2.58007812 2.773125 3.16015625 2.65625 3.7578125 C1.94376907 6.19212234 0.93686006 7.79489445 -0.5 9.875 C-2.68525703 13.23790275 -3.69525068 15.93667569 -4 20 C-4.66 20 -5.32 20 -6 20 C-6.33 20.99 -6.66 21.98 -7 23 C-8 21 -8 21 -7.37915039 18.84521484 C-7.03875732 17.97590332 -6.69836426 17.1065918 -6.34765625 16.2109375 C-5.98349609 15.26992188 -5.61933594 14.32890625 -5.24414062 13.359375 C-4.85419922 12.37453125 -4.46425781 11.3896875 -4.0625 10.375 C-3.48338867 8.88613281 -3.48338867 8.88613281 -2.89257812 7.3671875 C-1.93521981 4.90878591 -0.96847786 2.45404237 0 0 Z " fill="#60A4D0" transform="translate(130,29)"/>
<path d="M0 0 C19.23404255 5.23404255 19.23404255 5.23404255 24 10 C24.14507695 12.74485593 24.18652423 15.38480543 24.125 18.125 C24.11597656 18.87910156 24.10695313 19.63320312 24.09765625 20.41015625 C24.0740687 22.27357254 24.03819719 24.13682593 24 26 C21.64453125 26.58984375 21.64453125 26.58984375 19 27 C16.6875 25.5625 16.6875 25.5625 15 24 C17.31 24.33 19.62 24.66 22 25 C21.67 20.05 21.34 15.1 21 10 C19.02 9.2575 17.04 8.515 15 7.75 C9.82043988 5.76308677 4.89985563 3.59404122 0 1 C0 0.67 0 0.34 0 0 Z " fill="#ECF1F4" transform="translate(52,82)"/>
<path d="M0 0 C-3.35307103 1.60646395 -6.70765148 3.20975177 -10.0625 4.8125 C-11.47692383 5.49022461 -11.47692383 5.49022461 -12.91992188 6.18164062 C-28.13092687 13.44264301 -28.13092687 13.44264301 -33 13 C-27.1096471 8.27112514 -19.58613158 4.61509175 -12 4 C-12 3.34 -12 2.68 -12 2 C-10.75579353 1.4654744 -9.50429064 0.94791389 -8.25 0.4375 C-7.55390625 0.14746094 -6.8578125 -0.14257812 -6.140625 -0.44140625 C-3.67732713 -1.08420113 -2.40641843 -0.6897518 0 0 Z " fill="#D0E0EA" transform="translate(203,95)"/>
<path d="M0 0 C0.33 0 0.66 0 1 0 C0.50447598 6.91639863 -1.04043017 12.62497919 -3.5625 19.0625 C-3.89185547 19.92810547 -4.22121094 20.79371094 -4.56054688 21.68554688 C-5.36438009 23.79415283 -6.1775712 25.89859349 -7 28 C-7.84511035 24.89472979 -8.02195292 22.58280872 -7.625 19.375 C-7.53476563 18.59898438 -7.44453125 17.82296875 -7.3515625 17.0234375 C-7 15 -7 15 -6 13 C-5.34 13 -4.68 13 -4 13 C-3.896875 12.34 -3.79375 11.68 -3.6875 11 C-2.80786436 7.16158991 -1.43030104 3.66903309 0 0 Z " fill="#D4E3EE" transform="translate(143,34)"/>
<path d="M0 0 C0.69222656 0.26296875 1.38445312 0.5259375 2.09765625 0.796875 C2.78730469 1.04953125 3.47695312 1.3021875 4.1875 1.5625 C6.29752352 2.61542263 7.59519365 3.80039636 9.16015625 5.546875 C5.24422179 4.76368811 1.7960899 3.15507642 -1.83984375 1.546875 C-1.83382008 3.96838913 -1.78640687 6.37714712 -1.71484375 8.796875 C-1.71742188 9.47878906 -1.72 10.16070312 -1.72265625 10.86328125 C-1.69204784 13.17326955 -1.69204784 13.17326955 -0.83984375 16.546875 C2.05963214 19.07931716 2.05963214 19.07931716 5.16015625 20.546875 C4.50015625 20.876875 3.84015625 21.206875 3.16015625 21.546875 C-0.30484375 19.566875 -0.30484375 19.566875 -3.83984375 17.546875 C-3.83984375 11.936875 -3.83984375 6.326875 -3.83984375 0.546875 C-1.83984375 -0.453125 -1.83984375 -0.453125 0 0 Z " fill="#E9EEF2" transform="translate(171.83984375,33.453125)"/>
<path d="M0 0 C-1.28913487 0.67154933 -2.58140204 1.33708859 -3.875 2 C-4.59429687 2.37125 -5.31359375 2.7425 -6.0546875 3.125 C-8 4 -8 4 -10 4 C-10 4.66 -10 5.32 -10 6 C-12.43218059 7.19963643 -14.86970578 8.38484438 -17.3125 9.5625 C-18.00279297 9.90474609 -18.69308594 10.24699219 -19.40429688 10.59960938 C-24.66015625 13.11328125 -24.66015625 13.11328125 -28 12 C-26.68 11.67 -25.36 11.34 -24 11 C-24 10.34 -24 9.68 -24 9 C-23.195625 8.71125 -22.39125 8.4225 -21.5625 8.125 C-18.8673532 7.26737432 -18.8673532 7.26737432 -18 5 C-16.66666667 4.66666667 -15.33333333 4.33333333 -14 4 C-13.67 3.34 -13.34 2.68 -13 2 C-11.00371336 1.6451046 -9.00309329 1.31421071 -7 1 C-5.9171875 0.443125 -5.9171875 0.443125 -4.8125 -0.125 C-3 -1 -3 -1 0 0 Z " fill="#A5CAE2" transform="translate(231,81)"/>
<path d="M0 0 C0.99 0.33 1.98 0.66 3 1 C3.13487595 3.77245014 3.23400807 6.53837088 3.3125 9.3125 C3.3753418 10.49102539 3.3753418 10.49102539 3.43945312 11.69335938 C3.48636002 13.89798364 3.47019965 15.84436843 3 18 C0.6796875 19.93359375 0.6796875 19.93359375 -2 21 C-3.051875 21.5775 -4.10375 22.155 -5.1875 22.75 C-6.115625 23.1625 -7.04375 23.575 -8 24 C-8.66 23.67 -9.32 23.34 -10 23 C-6.14499723 20.70182527 -3.38762753 19.09690688 1 18 C1 12.72 1 7.44 1 2 C0.01 1.67 -0.98 1.34 -2 1 C-1.34 0.67 -0.68 0.34 0 0 Z " fill="#EBF0F3" transform="translate(73,33)"/>
<path d="M0 0 C6.875 1.875 6.875 1.875 8 3 C8.07313567 5.53049402 8.09247527 8.03304837 8.0625 10.5625 C8.05798828 11.27341797 8.05347656 11.98433594 8.04882812 12.71679688 C8.03700864 14.47790013 8.01907263 16.23896036 8 18 C1.2421875 17.1953125 1.2421875 17.1953125 -0.9375 15.4375 C-1.4634375 14.7259375 -1.4634375 14.7259375 -2 14 C-0.68 14 0.64 14 2 14 C2 14.66 2 15.32 2 16 C2.99 15.67 3.98 15.34 5 15 C5.28327073 11.29230087 5.4641236 7.69660794 5 4 C2.6797907 1.76974753 2.6797907 1.76974753 0 1 C0 0.67 0 0.34 0 0 Z " fill="#7AB1D4" transform="translate(66,89)"/>
<path d="M0 0 C0 5.28 0 10.56 0 16 C-6.0546875 19.22265625 -6.0546875 19.22265625 -8 20 C-8.66 19.67 -9.32 19.34 -10 19 C-4.375 15 -4.375 15 -1 15 C-1 10.71 -1 6.42 -1 2 C-1.99 2.66 -2.98 3.32 -4 4 C-6.33199388 4.07905064 -8.66832622 4.08798769 -11 4 C-6.80471942 0.78361822 -5.58997173 0 0 0 Z " fill="#83B5D2" transform="translate(74,35)"/>
<path d="M0 0 C0.66 0.33 1.32 0.66 2 1 C-0.20716463 2.27289905 -2.41567485 3.5433605 -4.625 4.8125 C-5.24246094 5.16892578 -5.85992187 5.52535156 -6.49609375 5.89257812 C-17.92293469 12.44797635 -17.92293469 12.44797635 -23 12 C-18.77732929 8.67028691 -14.2148899 6.53991806 -9.375 4.25 C-8.50359375 3.82589844 -7.6321875 3.40179688 -6.734375 2.96484375 C-5.90164062 2.56910156 -5.06890625 2.17335937 -4.2109375 1.765625 C-3.45087402 1.40243164 -2.69081055 1.03923828 -1.90771484 0.66503906 C-1.27816895 0.44557617 -0.64862305 0.22611328 0 0 Z " fill="#DEE8EF" transform="translate(61,39)"/>
<path d="M0 0 C1.1916143 3.57484289 0.74788456 4.28587882 -0.65234375 7.66796875 C-1.01650391 8.56064453 -1.38066406 9.45332031 -1.75585938 10.37304688 C-2.14580078 11.30181641 -2.53574219 12.23058594 -2.9375 13.1875 C-3.32357422 14.12787109 -3.70964844 15.06824219 -4.10742188 16.03710938 C-5.06321649 18.36169628 -6.02767007 20.68229199 -7 23 C-8.21573518 19.35279446 -7.6482856 17.74627037 -6.6875 14.0625 C-6.42324219 13.02222656 -6.15898438 11.98195313 -5.88671875 10.91015625 C-5.12525325 8.41107343 -4.25768443 6.27920977 -3 4 C-2.34 4 -1.68 4 -1 4 C-0.67 2.68 -0.34 1.36 0 0 Z " fill="#C8DDEA" transform="translate(134,62)"/>
<path d="M0 0 C-5.625 3 -5.625 3 -9 3 C-9.33 7.29 -9.66 11.58 -10 16 C-9.34 16.33 -8.68 16.66 -8 17 C-9.32 17.33 -10.64 17.66 -12 18 C-12 13.05 -12 8.1 -12 3 C-3.375 -1.125 -3.375 -1.125 0 0 Z " fill="#6EAAD0" transform="translate(182,89)"/>
<path d="M0 0 C5.41538462 -0.36923077 5.41538462 -0.36923077 8.375 1.5 C8.91125 1.995 9.4475 2.49 10 3 C9.34 3.66 8.68 4.32 8 5 C5.375 4.625 5.375 4.625 3 4 C3 5.98 3 7.96 3 10 C2.01 9.67 1.02 9.34 0 9 C0 6.03 0 3.06 0 0 Z " fill="#3A96D3" transform="translate(172,39)"/>
<path d="M0 0 C1.40573244 4.39253859 -0.02899378 7.25029283 -1.8125 11.3125 C-3.44733425 15.12454881 -5.01616051 18.84839585 -6.09765625 22.859375 C-6.97008114 25.89586682 -7.54795006 27.10523413 -10 29 C-9.34741705 25.23185973 -8.29013667 21.83458532 -6.93359375 18.26171875 C-6.53076172 17.19501953 -6.12792969 16.12832031 -5.71289062 15.02929688 C-5.29201172 13.92650391 -4.87113281 12.82371094 -4.4375 11.6875 C-4.01275391 10.56537109 -3.58800781 9.44324219 -3.15039062 8.28710938 C-2.10371244 5.52340854 -1.05347135 2.76111699 0 0 Z " fill="#E6EEF2" transform="translate(109,81)"/>
<path d="M0 0 C0.66 0 1.32 0 2 0 C2.33 0.99 2.66 1.98 3 3 C4.49985609 4.66710346 4.49985609 4.66710346 6 6 C2.08428299 7.305239 0.96107003 6.32239848 -2.6875 4.5625 C-3.68136719 4.08941406 -4.67523438 3.61632812 -5.69921875 3.12890625 C-6.45847656 2.75636719 -7.21773437 2.38382812 -8 2 C-4.71023192 0.90341064 -3.28696233 1.20046862 0 2 C0 1.34 0 0.68 0 0 Z " fill="#AECFE4" transform="translate(17,79)"/>
<path d="M0 0 C5.06998019 0.65419099 9.41990777 2.8546409 14 5 C14 5.33 14 5.66 14 6 C8.7837917 6.3129725 5.43424223 5.85058429 1 3 C0.67 2.01 0.34 1.02 0 0 Z " fill="#B4D0E4" transform="translate(176,53)"/>
<path d="M0 0 C4.35970831 1.34849837 8.31341438 3.04907846 12.375 5.125 C13.43460938 5.66382813 14.49421875 6.20265625 15.5859375 6.7578125 C16.38257813 7.16773438 17.17921875 7.57765625 18 8 C15.11262525 9.19958565 14.0422734 9.01592261 11.0546875 7.890625 C10.00539062 7.34921875 8.95609375 6.8078125 7.875 6.25 C6.82054687 5.71890625 5.76609375 5.1878125 4.6796875 4.640625 C2 3 2 3 0 0 Z " fill="#E7EEF2" transform="translate(198,47)"/>
<path d="M0 0 C-2.45404224 1.19716659 -4.91251679 2.3829346 -7.375 3.5625 C-8.42300781 4.07586914 -8.42300781 4.07586914 -9.4921875 4.59960938 C-11.30052216 5.46030712 -13.14851956 6.23652436 -15 7 C-15.66 6.67 -16.32 6.34 -17 6 C-16.34 5.34 -15.68 4.68 -15 4 C-14.01 4 -13.02 4 -12 4 C-12 3.34 -12 2.68 -12 2 C-10.75579353 1.4654744 -9.50429064 0.94791389 -8.25 0.4375 C-7.55390625 0.14746094 -6.8578125 -0.14257812 -6.140625 -0.44140625 C-3.69987216 -1.07831803 -2.3596345 -0.80248831 0 0 Z " fill="#DAE7EF" transform="translate(203,95)"/>
<path d="M0 0 C4.23429756 1.31061591 8.07407404 2.94356259 12 5 C12 5.99 12 6.98 12 8 C7.96479403 6.41037341 3.98188718 4.71767682 0 3 C0 2.01 0 1.02 0 0 Z " fill="#CFE1EC" transform="translate(216,56)"/>
<path d="M0 0 C-0.66 0 -1.32 0 -2 0 C-2 0.66 -2 1.32 -2 2 C-2.66 2 -3.32 2 -4 2 C-4 2.66 -4 3.32 -4 4 C-6.64 4.33 -9.28 4.66 -12 5 C-12 4.34 -12 3.68 -12 3 C-10.5682384 2.30062798 -9.12932968 1.61587282 -7.6875 0.9375 C-6.48673828 0.36322266 -6.48673828 0.36322266 -5.26171875 -0.22265625 C-3 -1 -3 -1 0 0 Z " fill="#B5D4E6" transform="translate(208,77)"/>
<path d="M0 0 C1.32 0.33 2.64 0.66 4 1 C4 2.98 4 4.96 4 7 C2.02 7.66 0.04 8.32 -2 9 C-1.41196203 5.97580475 -0.77321882 2.98241547 0 0 Z " fill="#3B93CD" transform="translate(232,68)"/>
<path d="M0 0 C0.66 0 1.32 0 2 0 C1.71848084 2.12636813 1.42446737 4.25108528 1.125 6.375 C0.96257812 7.55835938 0.80015625 8.74171875 0.6328125 9.9609375 C0 13 0 13 -2 15 C-1.85930804 12.87465341 -1.71229079 10.74972471 -1.5625 8.625 C-1.48128906 7.44164062 -1.40007812 6.25828125 -1.31640625 5.0390625 C-1 2 -1 2 0 0 Z " fill="#B1D0E3" transform="translate(137,47)"/>
<path d="M0 0 C3.10380501 0.77595125 5.25002779 1.5268006 8 3 C6 4 6 4 1 3 C1 6.96 1 10.92 1 15 C0.67 15 0.34 15 0 15 C0 10.05 0 5.1 0 0 Z " fill="#7BAFD0" transform="translate(170,35)"/>
<path d="M0 0 C0.66 0 1.32 0 2 0 C1.125 5.75 1.125 5.75 0 8 C-0.66 8 -1.32 8 -2 8 C-2.66 9.32 -3.32 10.64 -4 12 C-3.45660208 7.43545749 -2.20536179 4.0271824 0 0 Z " fill="#A9CDE4" transform="translate(124,85)"/>
<path d="M0 0 C3.93306853 0.54880026 7.41353557 1.25800299 11 3 C11.33 3.66 11.66 4.32 12 5 C12.99 5.66 13.98 6.32 15 7 C8.99729545 6.41437029 4.30369964 4.30369964 0 0 Z " fill="#C8DEEC" transform="translate(41,78)"/>
<path d="M0 0 C1.18771723 3.42943519 0.80226223 5.37784675 -0.4375 8.75 C-0.86869141 9.94882813 -0.86869141 9.94882813 -1.30859375 11.171875 C-1.53675781 11.77515625 -1.76492187 12.3784375 -2 13 C-2.66 13 -3.32 13 -4 13 C-4.37068304 6.45126631 -4.37068304 6.45126631 -2.5625 4.25 C-2.046875 3.8375 -1.53125 3.425 -1 3 C-0.67 2.01 -0.34 1.02 0 0 Z " fill="#9AC3DD" transform="translate(114,72)"/>
<path d="M0 0 C0.66 0.33 1.32 0.66 2 1 C1 3 1 3 -1.21484375 3.88671875 C-2.11332031 4.15097656 -3.01179688 4.41523437 -3.9375 4.6875 C-4.83339844 4.95949219 -5.72929688 5.23148438 -6.65234375 5.51171875 C-9 6 -9 6 -11 5 C-9.21289414 4.13633178 -7.4201535 3.28431406 -5.625 2.4375 C-4.62726562 1.96183594 -3.62953125 1.48617187 -2.6015625 0.99609375 C-1.74304687 0.66738281 -0.88453125 0.33867188 0 0 Z " fill="#C6DAE8" transform="translate(62,55)"/>
<path d="M0 0 C1.45606519 4.52092968 0.27032841 7.51648796 -1 12 C-1.66 12 -2.32 12 -3 12 C-3.33 12.99 -3.66 13.98 -4 15 C-5 13 -5 13 -4.00390625 9.9609375 C-3.52824219 8.77757812 -3.05257812 7.59421875 -2.5625 6.375 C-2.08941406 5.18648437 -1.61632812 3.99796875 -1.12890625 2.7734375 C-0.75636719 1.85820313 -0.38382812 0.94296875 0 0 Z " fill="#76B1D3" transform="translate(127,37)"/>
<path d="M0 0 C-1.32 0.33 -2.64 0.66 -4 1 C-4 1.66 -4 2.32 -4 3 C-8.455 3.495 -8.455 3.495 -13 4 C-9.58506641 0.99485844 -4.42848328 -2.21424164 0 0 Z " fill="#C4D9E6" transform="translate(25,60)"/>
<path d="M0 0 C3.11547441 0.67883043 5.85137721 1.74106902 8.75 3.0625 C9.54921875 3.42472656 10.3484375 3.78695312 11.171875 4.16015625 C11.77515625 4.43730469 12.3784375 4.71445313 13 5 C10.44855176 5.93045933 9.25993522 6.08564091 6.640625 5.22265625 C5.85171875 4.83980469 5.0628125 4.45695312 4.25 4.0625 C3.45078125 3.68222656 2.6515625 3.30195312 1.828125 2.91015625 C1.22484375 2.60980469 0.6215625 2.30945313 0 2 C0 1.34 0 0.68 0 0 Z " fill="#E9EFF3" transform="translate(29,72)"/>
<path d="M0 0 C1.59036701 3.18073402 0.78365299 5.62426403 0 9 C-2.05078125 10.21875 -2.05078125 10.21875 -4 11 C-3.5247412 9.35303396 -3.04468109 7.70745272 -2.5625 6.0625 C-2.29566406 5.14597656 -2.02882813 4.22945313 -1.75390625 3.28515625 C-1 1 -1 1 0 0 Z " fill="#83B6D7" transform="translate(107,91)"/>
<path d="M0 0 C-0.54723683 3.37462715 -1.0549 5.08235 -3 8 C-3.33 5.69 -3.66 3.38 -4 1 C-2 0 -2 0 0 0 Z " fill="#7AB1DA" transform="translate(135,58)"/>
<path d="M0 0 C-0.33 1.32 -0.66 2.64 -1 4 C-3.31 4 -5.62 4 -8 4 C-2.7826087 0 -2.7826087 0 0 0 Z " fill="#B1CEDF" transform="translate(71,35)"/>
<path d="M0 0 C0.66 0 1.32 0 2 0 C2 0.66 2 1.32 2 2 C3.32 2 4.64 2 6 2 C6 2.99 6 3.98 6 5 C4.35 4.67 2.7 4.34 1 4 C0.67 2.68 0.34 1.36 0 0 Z " fill="#3994CD" transform="translate(49,92)"/>
<path d="M0 0 C2.31 0.66 4.62 1.32 7 2 C7 2.99 7 3.98 7 5 C4.625 4.75 4.625 4.75 2 4 C0.6875 1.9375 0.6875 1.9375 0 0 Z " fill="#80B6D9" transform="translate(209,54)"/>
</svg>
